<?xml version="1.0" standalone="no"?>
<!DOCTYPE svg PUBLIC "-//W3C//DTD SVG 20010904//EN"
 "http://www.w3.org/TR/2001/REC-SVG-20010904/DTD/svg10.dtd">
<svg version="1.0" xmlns="http://www.w3.org/2000/svg"
 width="200.000000pt" height="200.000000pt" viewBox="0 0 200.000000 200.000000"
 preserveAspectRatio="xMidYMid meet">

<g transform="translate(0.000000,200.000000) scale(0.100000,-0.100000)"
fill="black" stroke="none">
<path d="M870 1986 c-240 -52 -442 -208 -545 -421 -63 -131 -75 -192 -68 -335
6 -111 5 -120 -16 -145 -25 -32 -27 -72 -6 -102 13 -19 12 -27 -12 -84 -18
-44 -27 -89 -31 -144 -4 -80 -4 -81 31 -123 20 -23 38 -51 42 -61 3 -10 16
-23 29 -29 16 -7 26 -22 31 -49 8 -46 69 -108 117 -118 18 -4 39 -17 47 -27
11 -16 21 -19 53 -15 27 4 41 1 44 -8 8 -20 60 -38 89 -31 14 4 34 15 45 26
19 19 20 35 20 328 l0 309 -23 21 c-30 28 -85 29 -120 2 -18 -15 -34 -19 -52
-14 -20 5 -33 0 -53 -19 -15 -14 -40 -28 -57 -31 -16 -4 -40 -15 -52 -25 -28
-24 -63 -81 -63 -106 -1 -12 -15 -29 -35 -42 l-34 -22 5 32 c16 93 57 187 80
187 9 0 29 13 45 29 35 35 38 77 9 114 -16 20 -20 40 -20 105 0 44 4 82 8 84
5 2 16 35 25 73 28 117 81 209 172 300 127 128 259 185 425 185 166 0 298 -57
425 -185 91 -91 144 -183 172 -300 9 -38 20 -71 25 -73 4 -2 8 -40 8 -84 0
-65 -4 -85 -20 -105 -29 -37 -26 -79 9 -114 16 -16 36 -29 45 -29 23 0 64 -94
80 -187 l5 -32 -34 22 c-20 13 -34 30 -35 42 0 25 -35 82 -63 106 -12 10 -35
21 -52 25 -16 3 -42 17 -57 31 -20 19 -33 24 -53 19 -18 -5 -34 -1 -52 14 -36
28 -93 27 -121 -3 -22 -23 -22 -29 -22 -330 0 -292 1 -308 20 -327 11 -11 31
-22 45 -26 29 -7 81 11 89 31 3 9 17 12 44 8 32 -4 42 -1 53 15 8 10 29 23 48
27 45 10 108 74 117 120 4 25 14 40 30 47 13 6 26 19 29 29 4 10 22 38 42 61
35 42 35 43 31 123 -4 55 -13 100 -31 144 -24 57 -25 65 -12 84 21 30 19 70
-6 101 -20 26 -21 36 -16 139 7 141 -9 220 -69 342 -96 196 -289 355 -499 410
-85 23 -226 27 -305 11z m279 -42 c73 -18 105 -39 82 -53 -7 -5 -33 -2 -60 6
-25 8 -93 17 -151 20 -89 5 -119 2 -190 -17 -109 -28 -114 -28 -118 -8 -3 13
12 21 65 37 97 28 98 29 207 30 62 1 125 -5 165 -15z m186 -71 c34 -16 45 -36
26 -48 -17 -10 -81 27 -81 47 0 22 10 23 55 1z m-1007 -677 c3 -70 1 -77 -15
-74 -15 3 -19 15 -21 67 -3 71 2 95 21 89 8 -3 13 -31 15 -82z m1377 3 c0 -62
-3 -74 -17 -77 -16 -3 -18 5 -18 71 0 40 3 77 7 81 19 18 28 -6 28 -75z
m-1345 -129 c11 -11 20 -25 20 -31 0 -15 -21 -53 -34 -61 -34 -23 -96 10 -96
52 0 28 35 60 65 60 14 0 34 -9 45 -20z m1370 0 c11 -11 20 -29 20 -40 0 -42
-62 -75 -96 -52 -13 8 -34 46 -34 61 0 20 40 51 65 51 14 0 34 -9 45 -20z
m-1030 -127 c19 -24 20 -37 18 -146 -2 -85 -7 -122 -15 -125 -10 -3 -13 25
-13 116 0 104 -3 123 -20 145 -24 30 -25 37 -6 37 8 0 24 -12 36 -27z m650 21
c0 -3 -9 -17 -20 -31 -17 -22 -20 -41 -20 -145 0 -91 -3 -119 -12 -116 -9 3
-14 40 -16 125 -2 109 -1 122 18 146 19 24 50 37 50 21z m-802 -36 c9 -9 12
-86 12 -285 0 -245 -2 -274 -16 -280 -39 -15 -44 18 -44 285 0 276 8 320 48
280z m942 -7 c6 -12 10 -118 10 -273 0 -267 -5 -300 -44 -285 -14 6 -16 35
-16 280 0 199 3 276 12 285 17 17 26 15 38 -7z m-1021 -188 c-1 -97 -4 -142
-8 -116 -12 69 -21 61 -21 -17 0 -78 -9 -86 -21 -17 -6 37 -7 38 -8 10 -2 -53
-21 -49 -22 4 l-1 48 -9 -40 c-4 -22 -8 -57 -8 -78 -1 -23 -5 -36 -11 -32 -16
10 -13 279 4 320 14 33 66 75 94 75 9 0 12 -37 11 -157z m1117 138 c53 -32 64
-71 64 -229 0 -83 -4 -143 -10 -147 -6 -4 -10 9 -11 32 0 21 -4 56 -8 78 l-9
40 -1 -47 c-1 -56 -20 -65 -22 -10 l-1 37 -9 -44 c-13 -66 -19 -62 -19 14 0
79 -17 79 -23 0 -2 -27 -4 28 -5 123 -2 188 -2 187 54 153z m-1276 -221 c0
-40 -4 -70 -10 -70 -11 0 -14 123 -3 133 12 13 13 7 13 -63z m1400 -6 c0 -36
-4 -64 -10 -64 -6 0 -10 30 -10 71 0 44 4 68 10 64 6 -3 10 -35 10 -71z m-990
-24 c0 -20 -5 -30 -15 -30 -10 0 -15 10 -15 30 0 20 5 30 15 30 10 0 15 -10
15 -30z m590 0 c0 -20 -5 -30 -15 -30 -10 0 -15 10 -15 30 0 20 5 30 15 30 10
0 15 -10 15 -30z"/>
<path d="M295 1040 c-4 -7 -3 -16 3 -22 14 -14 45 -2 40 15 -6 16 -34 21 -43
7z"/>
<path d="M1665 1040 c-4 -7 -3 -16 3 -22 14 -14 45 -2 40 15 -6 16 -34 21 -43
7z"/>
<path d="M896 1725 c-51 -18 -94 -60 -106 -104 -5 -20 -10 -129 -10 -243 l0
-208 -24 0 c-15 0 -26 7 -29 20 -3 11 -13 20 -22 20 -9 0 -19 -9 -22 -20 -3
-11 -9 -20 -14 -20 -15 0 -10 -30 6 -36 8 -4 15 -11 15 -18 0 -28 52 -118 90
-154 22 -22 65 -51 95 -63 l55 -23 0 -288 0 -288 -24 0 c-33 0 -73 -34 -86
-74 -11 -33 -12 -34 -73 -38 -46 -3 -72 -10 -96 -27 -36 -26 -70 -90 -71 -133
l0 -28 420 0 420 0 0 28 c-1 42 -34 107 -69 131 -17 12 -61 28 -97 34 -59 11
-67 16 -79 44 -15 36 -50 63 -82 63 l-23 0 0 288 0 288 55 23 c30 12 73 41 95
63 38 36 90 126 90 154 0 7 7 14 15 18 16 6 21 36 6 36 -5 0 -11 9 -14 20 -3
11 -13 20 -22 20 -9 0 -19 -9 -22 -20 -3 -13 -14 -20 -29 -20 l-24 0 0 208 c0
114 -5 224 -10 244 -13 44 -66 93 -117 107 -52 15 -150 13 -197 -4z m244 -72
c33 -37 43 -94 38 -218 l-3 -80 -175 0 -175 0 -3 80 c-5 133 5 184 44 223 l34
34 106 -4 c104 -3 106 -3 134 -35z m20 -478 c0 -59 -2 -65 -31 -90 -31 -25
-59 -30 -65 -10 -2 6 11 17 29 25 30 14 32 19 35 70 3 65 8 83 22 75 5 -3 10
-35 10 -70z m-353 -84 c33 -58 88 -81 193 -81 105 0 160 23 193 81 15 27 29
39 45 39 66 0 -27 -141 -123 -186 -99 -47 -237 -23 -306 52 -36 39 -69 95 -69
117 0 34 43 20 67 -22z m221 -13 c-3 -7 -17 -13 -33 -13 -16 0 -30 6 -32 13
-3 8 7 12 32 12 25 0 35 -4 33 -12z m-8 -493 c0 -278 0 -285 -20 -285 -20 0
-20 7 -20 285 0 278 0 285 20 285 20 0 20 -7 20 -285z m100 -345 c12 -12 18
-25 15 -30 -8 -13 -262 -13 -270 0 -3 5 3 18 15 30 17 17 33 20 120 20 87 0
103 -3 120 -20z m100 -105 l-65 -13 48 -1 c61 -1 61 -21 0 -22 -47 -1 -46 -2
16 -10 89 -11 88 -19 -5 -20 -75 -1 -78 -1 -49 -14 27 -13 8 -14 -165 -14
-173 0 -192 1 -165 14 29 13 26 13 -49 14 -93 1 -94 9 -5 20 62 8 63 9 17 10
-27 0 -48 6 -48 11 0 6 21 11 48 11 l47 1 -65 13 c-59 11 -37 13 220 13 257 0
279 -2 220 -13z"/>
<path d="M900 1655 c-11 -13 -11 -19 3 -32 21 -21 49 -9 45 19 -4 28 -30 35
-48 13z"/>
<path d="M980 1654 c-11 -12 -10 -18 3 -32 16 -15 18 -15 34 0 13 14 14 20 3
32 -7 9 -16 16 -20 16 -4 0 -13 -7 -20 -16z"/>
<path d="M1054 1655 c-8 -21 2 -45 19 -45 8 0 20 7 27 15 10 12 10 18 0 30 -7
8 -19 15 -27 15 -7 0 -16 -7 -19 -15z"/>
<path d="M856 1574 c-4 -10 -2 -22 3 -27 15 -15 46 -3 46 18 0 26 -40 33 -49
9z"/>
<path d="M934 1575 c-4 -9 -2 -21 4 -27 16 -16 47 -5 47 17 0 26 -42 34 -51
10z"/>
<path d="M1014 1575 c-4 -9 -2 -21 4 -27 16 -16 47 -5 47 17 0 26 -42 34 -51
10z"/>
<path d="M1094 1575 c-8 -20 4 -35 26 -35 23 0 32 13 24 34 -8 20 -43 21 -50
1z"/>
<path d="M894 1495 c-4 -9 -2 -21 4 -27 16 -16 47 -5 47 17 0 26 -42 34 -51
10z"/>
<path d="M974 1495 c-4 -9 -2 -21 4 -27 16 -16 47 -5 47 17 0 26 -42 34 -51
10z"/>
<path d="M1054 1495 c-4 -9 -2 -21 4 -27 16 -16 47 -5 47 17 0 26 -42 34 -51
10z"/>
<path d="M860 1425 c-11 -13 -11 -19 3 -32 21 -21 49 -9 45 19 -4 28 -30 35
-48 13z"/>
<path d="M940 1425 c-10 -12 -10 -18 0 -30 16 -19 39 -19 46 0 6 15 -11 45
-26 45 -4 0 -13 -7 -20 -15z"/>
<path d="M1023 1433 c-18 -7 -16 -42 3 -50 8 -3 23 1 31 10 13 13 14 19 3 31
-13 17 -17 18 -37 9z"/>
<path d="M1094 1425 c-8 -21 2 -45 19 -45 8 0 20 7 27 15 10 12 10 18 0 30 -7
8 -19 15 -27 15 -7 0 -16 -7 -19 -15z"/>
</g>
</svg>
